#!OML:ASF H:\ManfredObstacles\Project 1\Capture day 2\Session 1\male.ASF
:FULLY-SPECIFIED
:DEGREES
561
root 1.62414 11.582 -11.636 -156.34 1.7612 -183.427
lowerback 22.6368 0.14916 -5.96256
upperback 10.9804 1.48541 -2.41403
thorax -0.55349 1.57909 0.4552
lowerneck -32.2911 -0.394875 0.804645
upperneck 26.9272 -2.34724 3.03281
head 14.7308 -0.510471 0.604384
rclavicle -3.97569e-015 -5.60573e-014
rhumerus -14.5248 7.7924 -82.3223
rradius 46.3974
rwrist 22.4278
rhand -12.621 -10.6037
rfingers 7.12502
rthumb 13.4585 -40.1489
lclavicle -3.97569e-015 -5.60573e-014
lhumerus 10.2487 -18.4475 76.0792
lradius 35.2116
lwrist -34.8079
lhand -0.112882 4.47855
lfingers 7.12502
lthumb 25.4822 32.7948
rfemur -51.8365 -2.47947 19.3672
rtibia 114.613
rfoot -0.139048 -5.08951
rtoes -33.4615
lfemur -76.3547 2.08453 -29.235
ltibia 106.904
lfoot -8.03942 33.763
ltoes -21.9451
562
root 1.6257 11.6954 -11.822 -156.266 1.49287 -183.459
lowerback 22.1328 0.134807 -5.81084
upperback 10.8055 1.43736 -2.28185
thorax -0.505205 1.52421 0.532942
lowerneck -32.3629 -0.429709 0.713704
upperneck 27.1258 -2.36914 3.02677
head 14.8345 -0.529612 0.613081
rclavicle -2.68359e-015 1.39646e-014
rhumerus -16.0819 7.16142 -82.4717
rradius 46.8645
rwrist 22.154
rhand -12.4421 -10.6369
rfingers 7.12502
rthumb 13.631 -40.1705
lclavicle -2.68359e-015 1.39646e-014
lhumerus 9.33672 -19.3027 76.3597
lradius 36.9647
lwrist -33.8639
lhand -0.0934127 4.34502
lfingers 7.12502
lthumb 25.5009 32.6586
rfemur -51.8828 -2.16928 19.1044
rtibia 114.696
rfoot 2.88943 -2.37009
rtoes -32.9001
lfemur -74.8497 2.08347 -29.161
ltibia 105.916
lfoot -7.88508 33.5852
ltoes -21.8223
563
root 1.62852 11.8059 -12.0093 -156.22 1.22937 -183.475
lowerback 21.6161 0.10979 -5.66318
upperback 10.6517 1.382 -2.14834
thorax -0.42477 1.46703 0.615915
lowerneck -32.4827 -0.441376 0.64732
upperneck 27.3706 -2.37367 3.01564
head 14.9685 -0.539114 0.619609
rclavicle -1.2424e-014 5.66536e-015
rhumerus -17.6 6.49634 -82.6378
rradius 47.2237
rwrist 21.9959
rhand -12.3262 -10.6451
rfingers 7.12502
rthumb 13.7427 -40.1712
lclavicle -1.2424e-014 5.66536e-015
lhumerus 8.45628 -20.0864 76.6274
lradius 38.7255
lwrist -33.1056
lhand -0.149714 4.25636
lfingers 7.12502
lthumb 25.447 32.5776
rfemur -52.0373 -1.86068 18.9189
rtibia 114.887
rfoot 5.51843 0.0332378
rtoes -32.6983
lfemur -73.3318 2.07616 -29.0509
ltibia 104.927
lfoot -7.6863 33.3937
ltoes -21.7176
564
root 1.63306 11.9132 -12.1975 -156.188 0.979977 -183.491
lowerback 21.0701 0.0760299 -5.54483
upperback 10.5203 1.31766 -2.01462
thorax -0.301985 1.40535 0.717743
lowerneck -32.624 -0.432274 0.607874
upperneck 27.6278 -2.35829 2.99002
head 15.1125 -0.53949 0.620019
rclavicle 1.18277e-014 -3.41413e-014
rhumerus -19.0599 5.80978 -82.8092
rradius 47.445
rwrist 21.9474
rhand -12.2646 -10.6154
rfingers 7.12502
rthumb 13.802 -40.1376
lclavicle 1.18277e-014 -3.41413e-014
lhumerus 7.60681 -20.7761 76.8896
lradius 40.4805
lwrist -32.5621
lhand -0.308274 4.2048
lfingers 7.12502
lthumb 25.2951 32.5476
rfemur -52.3197 -1.56886 18.7931
rtibia 115.191
rfoot 7.50672 1.94286
rtoes -32.6914
lfemur -71.8095 2.05909 -28.9171
ltibia 103.931
lfoot -7.40452 33.1914
ltoes -21.6389
565
root 1.63942 12.0189 -12.3871 -156.176 0.730865 -183.517
lowerback 20.5338 2.6358 -4.48005
upperback 10.4944 0.482146 -1.50569
thorax -0.180131 -0.737148 0.838662
lowerneck -32.7796 -0.403926 0.583939
upperneck 27.8809 -2.32347 2.96604
head 15.258 -0.529835 0.622833
rclavicle 1.19271e-015 4.96962e-017
rhumerus -20.4675 5.12345 -82.9881
rradius 47.5335
rwrist 21.958
rhand -12.2559 -10.5676
rfingers 7.12502
rthumb 13.8104 -40.0892
lclavicle 1.19271e-015 4.96962e-017
lhumerus 6.79601 -21.3712 77.1404
lradius 42.2108
lwrist -32.1329
lhand -0.541121 4.20609
lfingers 7.12502
lthumb 25.072 32.5803
rfemur -52.7045 -1.31829 18.7146
rtibia 115.576
rfoot 8.74117 3.26129
rtoes -32.5689
lfemur -70.2646 2.02224 -28.7682
ltibia 102.914
lfoot -7.09599 32.9659
ltoes -21.5726
566
root 1.64728 12.123 -12.5785 -156.184 0.490938 -183.552
lowerback 19.9853 2.49255 -4.48502
upperback 10.3837 0.397667 -1.39337
thorax -0.0209372 -0.757692 0.979347
lowerneck -32.9792 -0.340996 0.609368
upperneck 28.1475 -2.25335 2.90964
head 15.418 -0.504461 0.611776
rclavicle 6.75868e-015 3.1085e-014
rhumerus -21.8189 4.48007 -83.1713
rradius 47.4914
rwrist 21.9729
rhand -12.2641 -10.5355
rfingers 7.12502
rthumb 13.8025 -40.0576
lclavicle 6.75868e-015 3.1085e-014
lhumerus 6.02546 -21.8437 77.3762
lradius 43.9116
lwrist -31.7845
lhand -0.82858 4.24472
lfingers 7.12502
lthumb 24.7965 32.6571
rfemur -53.1762 -1.11814 18.6726
rtibia 116.002
rfoot 9.20806 4.02483
rtoes -32.2101
lfemur -68.687 1.97704 -28.6084
ltibia 101.866
lfoot -6.7347 32.7229
ltoes -21.5016
